<svg width="26" height="30" viewBox="0 0 26 30" fill="none" xmlns="http://www.w3.org/2000/svg">
<path d="M13.9144 0.974697C13.5247 0.65818 13.0518 0.710359 12.7424 0.918752L12.7248 0.918752L12.6526 0.986705L1.13656 11.8257L1.13655 11.8257L1.1349 11.8273C0.763047 12.1837 0.75433 12.7909 1.09647 13.1449L1.09651 13.145C1.43595 13.4961 2.04694 13.5259 2.41062 13.1854L2.41104 13.185L12.3627 3.82212L12.3627 28.3224C12.3627 28.8347 12.778 29.25 13.2904 29.25C13.8027 29.25 14.218 28.8347 14.218 28.3224L14.218 3.82212L24.1697 13.185L24.1701 13.1854C24.5313 13.5236 25.1488 13.5032 25.4869 13.1421C25.8239 12.7823 25.8254 12.2093 25.4502 11.8315L25.4503 11.8314L25.4441 11.8257L13.9281 0.986705L13.9215 0.980449L13.9144 0.974697Z" fill="white" stroke="white" stroke-width="0.5"/>
</svg>
