<svg width="662" height="91" viewBox="0 0 662 91" fill="none" xmlns="http://www.w3.org/2000/svg">
<path d="M188.429 0C190.195 0.192482 191.973 0.276693 193.727 0.589477C197.587 1.27519 201.509 1.82858 205.284 2.8752C214.272 5.37747 219.106 11.5971 220.897 20.4512C222.065 26.2377 222.211 32.0844 222.248 37.9311C222.309 45.6063 222.321 53.2935 221.956 60.9688C221.749 65.1914 221.018 69.4621 219.983 73.5765C218.12 80.9145 213.114 85.4985 205.917 87.8922C199.572 90.0098 193.008 90.731 186.371 90.7677C171.429 90.8396 156.474 90.9 141.532 90.6232C136.758 90.539 131.936 89.697 127.271 88.6623C116.871 86.3642 110.807 79.7597 109.345 69.3658C108.627 64.253 108.285 59.056 108.212 53.883C108.091 45.6784 108.152 37.4619 108.481 29.2693C108.627 25.4678 109.284 21.6302 110.198 17.9249C112.024 10.5023 116.871 5.65416 124.166 3.12784C129.317 1.34738 134.639 0.649628 140.046 0.276693C140.704 0.228572 141.349 0.0962411 141.994 0C157.461 0 172.951 0 188.429 0ZM165.23 9.02262C165.23 9.08274 165.23 9.15493 165.23 9.21511C158.131 9.21511 151.019 9.08274 143.918 9.26322C139.657 9.37151 135.37 9.75642 131.168 10.4061C125.262 11.3324 121.621 14.8933 120.463 20.7159C119.989 23.1099 119.587 25.552 119.538 27.9821C119.355 37.0047 119.234 46.0153 119.295 55.0379C119.319 59.3447 119.599 63.6635 120.123 67.9463C121.097 75.8502 124.3 79.4469 132.24 80.6262C138.025 81.4804 143.955 81.6609 149.825 81.7206C161.991 81.8529 174.157 81.8169 186.323 81.6127C190.865 81.5401 195.456 81.0712 199.926 80.2889C205.333 79.3506 208.694 75.9099 209.778 70.5687C210.338 67.8019 210.837 64.9748 210.886 62.1718C211.056 52.1988 211.154 42.2138 211.02 32.2408C210.959 28.1866 210.46 24.1084 209.705 20.1144C208.743 15.0257 205.466 11.7895 200.291 10.6467C197.831 10.1053 195.31 9.6121 192.814 9.53991C183.619 9.27523 174.425 9.17902 165.23 9.02262Z" fill="white"/>
<path d="M311.43 0C313.196 0.192482 314.974 0.276693 316.728 0.589477C320.588 1.27519 324.509 1.82858 328.285 2.8752C337.272 5.37747 342.107 11.5971 343.897 20.4512C345.066 26.2377 345.212 32.0844 345.249 37.9311C345.309 45.6063 345.322 53.2935 344.957 60.9688C344.75 65.1914 344.019 69.4621 342.983 73.5765C341.12 80.9145 336.115 85.4985 328.918 87.8922C322.573 90.0098 316.009 90.731 309.372 90.7677C294.429 90.8396 279.475 90.9 264.533 90.6232C259.759 90.539 254.936 89.697 250.272 88.6623C239.872 86.3642 233.807 79.7597 232.346 69.3658C231.627 64.253 231.286 59.056 231.213 53.883C231.091 45.6784 231.153 37.4619 231.481 29.2693C231.627 25.4678 232.285 21.6302 233.198 17.9249C235.025 10.5023 239.872 5.65416 247.167 3.12784C252.318 1.34738 257.64 0.649628 263.047 0.276693C263.704 0.228572 264.349 0.0962411 264.995 0C280.461 0 295.939 0 311.43 0ZM288.146 9.02262C288.146 9.08274 288.146 9.15493 288.146 9.21511C281.095 9.21511 274.031 9.08274 266.98 9.26322C262.669 9.37151 258.334 9.75642 254.084 10.4301C248.25 11.3565 244.621 14.8933 243.476 20.6558C243.002 23.0497 242.575 25.4919 242.526 27.922C242.344 36.9445 242.222 45.9551 242.283 54.9778C242.308 59.3326 242.588 63.7116 243.124 68.0305C244.098 75.8624 247.349 79.4951 255.155 80.6262C261.086 81.4804 267.163 81.6364 273.179 81.7328C283.201 81.901 293.236 81.8651 303.259 81.745C308.8 81.6724 314.353 81.4804 319.857 80.9267C328.297 80.0725 332.303 76.127 333.302 67.8259C333.838 63.4108 334.069 58.9357 334.13 54.4845C334.24 47.1461 334.24 39.7957 334.009 32.4573C333.887 28.3551 333.448 24.2287 332.705 20.1866C331.756 15.0377 328.431 11.7775 323.206 10.6347C320.795 10.1053 318.323 9.62411 315.875 9.55192C306.632 9.27523 297.389 9.17902 288.146 9.02262Z" fill="white"/>
<path d="M0 2.02065C0.572369 1.97253 1.15692 1.87629 1.72928 1.87629C33.7211 1.86426 65.7007 1.86426 97.6924 1.86426C98.2164 1.86426 98.7397 1.86426 99.3732 1.86426C99.3732 4.94398 99.3732 7.89137 99.3732 10.923C84.7109 10.923 70.1093 10.923 55.3371 10.923C55.3371 36.9441 55.3371 62.8932 55.3371 88.9261C51.5863 88.9261 48.0059 88.9261 44.3038 88.9261C44.3038 63.0014 44.3038 37.0885 44.3038 10.947C29.4466 10.947 14.7233 10.947 0 10.947C0 7.97557 0 4.99209 0 2.02065Z" fill="white"/>
<path d="M357.901 89.0238C357.901 59.9589 357.901 31.0264 357.901 1.93756C358.424 1.9135 358.947 1.86538 359.459 1.86538C384.241 1.86538 409.012 1.84131 433.794 1.87741C438.129 1.88944 442.428 2.32252 446.593 3.6699C452.353 5.5466 455.812 9.29997 456.677 15.3031C457.432 20.5722 457.663 25.8174 456.007 30.9783C454.266 36.4159 450.697 40.025 445.022 41.4686C444.888 41.5047 444.754 41.5528 444.621 41.6129C444.584 41.625 444.572 41.6851 444.462 41.8536C444.901 41.9498 445.29 42.034 445.68 42.1062C454.144 43.8144 459.636 49.5047 460.622 57.9859C461.219 63.195 461.024 68.4402 459.843 73.5893C458.516 79.3878 454.996 83.3937 449.394 85.6436C444.462 87.616 439.274 88.4824 434.026 88.6751C426.634 88.9512 419.242 88.9757 411.837 88.9994C394.459 89.0598 377.081 89.0238 359.703 89.0238C359.131 89.0238 358.558 89.0238 357.901 89.0238ZM368.897 79.8566C369.481 79.8926 369.908 79.9408 370.334 79.9408C389.113 79.917 407.891 79.9292 426.682 79.8085C430.847 79.7847 435.049 79.4597 439.164 78.8701C445.375 77.9799 448.651 74.8764 449.26 69.4145C449.65 65.9018 449.772 62.3289 449.613 58.804C449.321 52.3438 446.776 49.4446 440.297 48.4822C435.657 47.7844 430.92 47.3874 426.219 47.3513C407.636 47.2069 389.04 47.2671 370.456 47.2551C369.944 47.2551 369.433 47.2551 368.897 47.2551C368.897 58.2145 368.897 68.9572 368.897 79.8566ZM368.885 38.0761C369.445 38.1122 369.872 38.1723 370.297 38.1723C388.699 38.1483 407.1 38.1603 425.501 38.04C429.179 38.0159 432.893 37.667 436.534 37.1137C442.099 36.2716 444.876 33.7813 445.644 28.849C446.106 25.8415 446.228 22.7136 445.972 19.67C445.558 14.6414 443.598 12.5121 438.519 11.7421C434.598 11.1526 430.579 10.9842 426.609 10.9722C407.916 10.9 389.222 10.9361 370.529 10.9361C370.006 10.9361 369.494 10.9361 368.909 10.9361C368.885 20.0549 368.885 28.9693 368.885 38.0761Z" fill="white"/>
<path d="M473.628 1.96084C477.184 1.96084 480.728 1.96084 484.491 1.96084C484.491 27.8978 484.491 53.8348 484.491 79.952C507.909 79.952 531.109 79.952 554.369 79.952C554.369 83.0439 554.369 85.9431 554.369 88.9387C527.455 88.9387 500.591 88.9387 473.628 88.9387C473.628 59.9822 473.628 31.0137 473.628 1.96084Z" fill="white"/>
<path d="M661.635 1.82832C661.635 4.89601 661.635 7.85543 661.635 10.875C629.656 10.875 597.737 10.875 565.708 10.875C565.708 7.90353 565.708 4.90804 565.708 1.82832C597.627 1.82832 629.582 1.82832 661.635 1.82832Z" fill="white"/>
<path d="M661.649 38.1364C661.649 41.18 661.649 44.1394 661.649 47.1711C629.633 47.1711 597.69 47.1711 565.674 47.1711C565.674 44.1515 565.674 41.192 565.674 38.1364C597.616 38.1364 629.572 38.1364 661.649 38.1364Z" fill="white"/>
<path d="M565.66 88.6388C565.66 85.7634 565.66 83.0087 565.66 80.1698C597.639 80.1698 629.558 80.1698 661.587 80.1698C661.587 82.9367 661.587 85.7396 661.587 88.6388C629.68 88.6388 597.725 88.6388 565.66 88.6388Z" fill="white"/>
</svg>
