<svg width="144" height="20" viewBox="0 0 144 20" fill="none" xmlns="http://www.w3.org/2000/svg">
<path d="M40.9876 0C41.3717 0.041844 41.7586 0.0601506 42.1399 0.128147C42.9797 0.277216 43.8328 0.397518 44.6539 0.625045C46.6089 1.16902 47.6606 2.5211 48.05 4.44592C48.3042 5.70385 48.336 6.97486 48.3439 8.24588C48.3573 9.9144 48.3598 11.5855 48.2804 13.2541C48.2354 14.172 48.0764 15.1005 47.8513 15.9949C47.446 17.5901 46.3572 18.5866 44.7917 19.107C43.4115 19.5673 41.9837 19.7241 40.54 19.7321C37.2897 19.7477 34.0367 19.7609 30.7864 19.7007C29.7479 19.6824 28.699 19.4994 27.6843 19.2744C25.4221 18.7748 24.1029 17.3391 23.7851 15.0795C23.6288 13.968 23.5545 12.8383 23.5386 11.7137C23.5122 9.9301 23.5254 8.14389 23.597 6.3629C23.6288 5.53649 23.7717 4.70221 23.9705 3.89671C24.3678 2.28311 25.4221 1.22917 27.0089 0.679965C28.1293 0.292908 29.2871 0.141223 30.4632 0.0601506C30.6063 0.0496896 30.7467 0.020922 30.887 0C34.2513 0 37.6208 0 40.9876 0ZM35.9413 1.96144C35.9413 1.97451 35.9413 1.9902 35.9413 2.00329C34.397 2.00329 32.85 1.97451 31.3055 2.01374C30.3785 2.03728 29.446 2.12096 28.5321 2.26219C27.2473 2.46356 26.4553 3.23768 26.2035 4.50345C26.1003 5.02389 26.0128 5.55479 26.0022 6.08306C25.9625 8.0445 25.936 10.0033 25.9493 11.9648C25.9546 12.901 26.0156 13.8399 26.1294 14.7709C26.3413 16.4892 27.038 17.2711 28.7652 17.5274C30.0235 17.7131 31.3136 17.7524 32.5903 17.7653C35.2367 17.7941 37.883 17.7863 40.5294 17.7419C41.5176 17.7261 42.5162 17.6242 43.4884 17.4541C44.6645 17.2501 45.3957 16.5021 45.6314 15.341C45.7533 14.7395 45.8618 14.125 45.8724 13.5156C45.9095 11.3476 45.9308 9.1769 45.9017 7.00886C45.8883 6.12752 45.7798 5.24095 45.6155 4.3727C45.4063 3.26645 44.6936 2.56294 43.5678 2.3145C43.0327 2.19681 42.4843 2.08959 41.9414 2.07389C39.9413 2.01635 37.9413 1.99544 35.9413 1.96144Z" fill="#FFFFFF"/>
<path d="M67.7431 0C68.1272 0.041844 68.5139 0.0601506 68.8954 0.128147C69.7352 0.277216 70.5881 0.397518 71.4094 0.625045C73.3643 1.16902 74.4159 2.5211 74.8053 4.44592C75.0597 5.70385 75.0915 6.97486 75.0994 8.24588C75.1126 9.9144 75.1153 11.5855 75.0359 13.2541C74.9909 14.172 74.8318 15.1005 74.6066 15.9949C74.2014 17.5901 73.1126 18.5866 71.5471 19.107C70.167 19.5673 68.7391 19.7241 67.2953 19.7321C64.045 19.7477 60.7922 19.7609 57.5419 19.7007C56.5034 19.6824 55.4543 19.4994 54.4398 19.2744C52.1776 18.7748 50.8583 17.3391 50.5404 15.0795C50.3841 13.968 50.31 12.8383 50.2941 11.7137C50.2676 9.9301 50.2809 8.14389 50.3525 6.3629C50.3841 5.53649 50.5272 4.70221 50.7259 3.89671C51.1232 2.28311 52.1776 1.22917 53.7644 0.679965C54.8848 0.292908 56.0424 0.141223 57.2187 0.0601506C57.3616 0.0496896 57.502 0.020922 57.6425 0C61.0066 0 64.3735 0 67.7431 0ZM62.6783 1.96144C62.6783 1.97451 62.6783 1.9902 62.6783 2.00329C61.1444 2.00329 59.608 1.97451 58.0742 2.01374C57.1365 2.03728 56.1934 2.12096 55.2689 2.26741C54.0001 2.4688 53.2106 3.23768 52.9616 4.49039C52.8584 5.01081 52.7656 5.54171 52.755 6.06999C52.7153 8.03142 52.6887 9.99025 52.7021 11.9517C52.7074 12.8984 52.7683 13.8504 52.8849 14.7892C53.0968 16.4918 53.8041 17.2815 55.5021 17.5274C56.7921 17.7131 58.1139 17.7471 59.4226 17.768C61.6026 17.8046 63.7855 17.7968 65.9657 17.7707C67.1709 17.7549 68.3788 17.7131 69.5762 17.5928C71.4119 17.4071 72.2835 16.5494 72.5007 14.7448C72.6173 13.785 72.6676 12.8121 72.6808 11.8445C72.7047 10.2492 72.7047 8.65124 72.6544 7.05594C72.6279 6.16414 72.5326 5.26711 72.371 4.38839C72.1644 3.26906 71.4412 2.56033 70.3046 2.31189C69.7802 2.19681 69.2424 2.0922 68.71 2.0765C66.6993 2.01635 64.6888 1.99544 62.6783 1.96144Z" fill="#FFFFFF"/>
<path d="M0 0.439272C0.124503 0.428811 0.251656 0.407889 0.376158 0.407889C7.3351 0.405273 14.2914 0.405273 21.2503 0.405273C21.3643 0.405273 21.4781 0.405273 21.6159 0.405273C21.6159 1.07478 21.6159 1.71552 21.6159 2.37456C18.4265 2.37456 15.2504 2.37456 12.0371 2.37456C12.0371 8.03133 12.0371 13.6724 12.0371 19.3318C11.2212 19.3318 10.4424 19.3318 9.63709 19.3318C9.63709 13.696 9.63709 8.06272 9.63709 2.37978C6.4053 2.37978 3.20265 2.37978 0 2.37978C0 1.73382 0 1.08524 0 0.439272Z" fill="#FFFFFF"/>
<path d="M77.8515 19.353C77.8515 13.0345 77.8515 6.74487 77.8515 0.421208C77.9653 0.415978 78.0792 0.405517 78.1904 0.405517C83.5812 0.405517 88.9694 0.400285 94.3601 0.408132C95.3031 0.410747 96.2382 0.504895 97.1442 0.797804C98.3971 1.20578 99.1494 2.02173 99.3375 3.32675C99.5018 4.47222 99.5521 5.61247 99.1918 6.73442C98.813 7.91651 98.0368 8.70108 96.8024 9.01491C96.7732 9.02276 96.7441 9.03322 96.715 9.04629C96.707 9.04891 96.7044 9.06198 96.6806 9.09861C96.776 9.11952 96.8607 9.13783 96.9454 9.15352C98.7865 9.52488 99.9813 10.7619 100.196 12.6056C100.326 13.738 100.283 14.8783 100.026 15.9977C99.7375 17.2582 98.9719 18.1291 97.7533 18.6182C96.6806 19.0469 95.5521 19.2353 94.4104 19.2772C92.8025 19.3372 91.1945 19.3425 89.5839 19.3477C85.8038 19.3608 82.0236 19.353 78.2435 19.353C78.119 19.353 77.9944 19.353 77.8515 19.353ZM80.2434 17.3601C80.3706 17.368 80.4634 17.3784 80.5561 17.3784C84.6409 17.3733 88.7256 17.3759 92.813 17.3497C93.7189 17.3445 94.633 17.2738 95.5282 17.1457C96.8792 16.9522 97.5918 16.2775 97.7243 15.0901C97.809 14.3265 97.8355 13.5498 97.8011 12.7835C97.7376 11.3791 97.1839 10.7488 95.7747 10.5396C94.7653 10.3879 93.7348 10.3016 92.7123 10.2938C88.67 10.2624 84.625 10.2755 80.5825 10.2728C80.4712 10.2728 80.36 10.2728 80.2434 10.2728C80.2434 12.6553 80.2434 14.9907 80.2434 17.3601ZM80.2408 8.27741C80.3627 8.28526 80.4555 8.29833 80.5481 8.29833C84.5508 8.29311 88.5534 8.29572 92.556 8.26957C93.356 8.26433 94.164 8.18849 94.9561 8.06818C96.1666 7.88512 96.7707 7.34377 96.9376 6.27152C97.0382 5.61771 97.0647 4.93773 97.0091 4.27608C96.9189 3.18291 96.4925 2.72001 95.3878 2.55263C94.5349 2.42448 93.6607 2.38787 92.7972 2.38526C88.7309 2.36957 84.6647 2.37741 80.5984 2.37741C80.4846 2.37741 80.3733 2.37741 80.2461 2.37741C80.2408 4.35977 80.2408 6.29767 80.2408 8.27741Z" fill="#FFFFFF"/>
<path d="M103.025 0.426269C103.798 0.426269 104.569 0.426269 105.388 0.426269C105.388 6.06475 105.388 11.7032 105.388 17.3809C110.482 17.3809 115.528 17.3809 120.588 17.3809C120.588 18.053 120.588 18.6833 120.588 19.3345C114.733 19.3345 108.89 19.3345 103.025 19.3345C103.025 13.0396 103.025 6.7421 103.025 0.426269Z" fill="#FFFFFF"/>
<path d="M143.921 0.397461C143.921 1.06435 143.921 1.7077 143.921 2.36412C136.964 2.36412 130.021 2.36412 123.054 2.36412C123.054 1.71816 123.054 1.06696 123.054 0.397461C129.997 0.397461 136.948 0.397461 143.921 0.397461Z" fill="#FFFFFF"/>
<path d="M143.924 8.29053C143.924 8.95218 143.924 9.59553 143.924 10.2546C136.959 10.2546 130.011 10.2546 123.047 10.2546C123.047 9.59814 123.047 8.95479 123.047 8.29053C129.995 8.29053 136.946 8.29053 143.924 8.29053Z" fill="#FFFFFF"/>
<path d="M123.044 19.2693C123.044 18.6442 123.044 18.0454 123.044 17.4282C130 17.4282 136.943 17.4282 143.91 17.4282C143.91 18.0297 143.91 18.639 143.91 19.2693C136.97 19.2693 130.019 19.2693 123.044 19.2693Z" fill="#FFFFFF"/>
</svg>
